<svg width="512" height="484" viewBox="0 0 512 484" fill="none" xmlns="http://www.w3.org/2000/svg">
<path d="M290.583 463.715C299.67 457.225 312.653 446.838 319.793 440.347C444.249 489.791 484.853 393.153 481.611 356.27C478.021 315.43 427.312 198.88 254.883 198.877C246.775 217.88 223.066 227.413 203.456 216.054C179.39 202.114 179.39 167.077 203.456 153.138C222.151 142.308 244.567 150.47 253.644 167.719C358.329 167.187 475.69 211.649 508.508 335.369C532.178 424.594 432.874 528.609 290.583 463.715ZM354.989 337.522C372.309 335.481 387.322 321.025 387.322 301.437C387.322 273.558 356.917 256.039 332.724 269.979C311.501 282.207 308.901 310.669 324.914 326.883C267.471 433.981 139.18 475.856 71.48 435.208C33.99 412.698 -4.67001 332.116 85.462 257.946C82.865 249.508 78.97 235.227 77.023 224.841C-85.024 346.957 31.624 541.265 214.335 465.596C263.733 445.138 317.293 409.383 354.988 337.522H354.989ZM157.385 378.982C181.612 392.922 212.06 375.402 212.06 347.524C212.06 324.258 190.855 308.224 169.757 311.651C35.742 61.325 317.897 -87.3299 354.196 149.544L386.652 159.281C363.052 -31.261 220.585 -13.826 174.945 24.765C140.74 53.688 49.3 155.46 143.772 329.792C134.669 346.182 139.206 368.522 157.385 378.982V378.982Z" fill="#E9708E"/>
</svg>
