<svg width="52" height="52" viewBox="0 0 52 52" fill="none" xmlns="http://www.w3.org/2000/svg">
  <path d="M3.71423 11.1431H48.2857M3.71423 40.8574H48.2857" stroke="#1F1F1F" stroke-linecap="round" stroke-linejoin="round"/>
  <path d="M11.1428 48.2856L11.1428 3.71422M40.8571 48.2856L40.8571 3.71422" stroke="#181818" stroke-linecap="round" stroke-linejoin="round"/>
  <path d="M28.408 18.016L25.696 18.04C24.576 18.088 24.016 18.216 24.016 18.424V24.424C24.016 24.584 24.096 24.664 24.256 24.664H28.072C28.456 24.664 28.712 24.488 28.84 24.136C28.984 23.768 29.056 23.096 29.056 22.12L29.848 22L29.8 25.192L29.848 28.144L29.056 28.264C29.056 27.32 29 26.712 28.888 26.44C28.776 26.168 28.504 26.032 28.072 26.032H24.256C24.096 26.032 24.016 26.104 24.016 26.248V31.288C24.016 31.992 24.16 32.44 24.448 32.632C24.736 32.808 25.368 32.896 26.344 32.896H28.672C29.888 32.896 30.84 32.616 31.528 32.056C32.216 31.48 32.76 30.6 33.16 29.416L33.976 29.56C33.976 29.848 33.768 30.664 33.352 32.008C32.936 33.336 32.64 34 32.464 34L26.344 34.048C25.928 34.048 24.712 34.032 22.696 34L20.032 34.072L19.84 33.016C20.736 32.92 21.28 32.832 21.472 32.752C21.68 32.656 21.8 32.432 21.832 32.08V18.88C21.832 18.544 21.72 18.32 21.496 18.208C21.272 18.096 20.752 18.008 19.936 17.944L19.72 16.888L22.72 16.96H26.584L32.512 16.984C32.624 17.224 32.68 17.76 32.68 18.592C32.68 19.424 32.64 20.28 32.56 21.16L31.792 21.088C31.6 19.952 31.248 19.16 30.736 18.712C30.224 18.248 29.448 18.016 28.408 18.016Z" fill="grey"/>
</svg>
